<svg width="1272" height="276" viewBox="0 0 1272 276" fill="none" xmlns="http://www.w3.org/2000/svg">
    <path d="M502.63 226.039C493.006 226.039 483.804 225.195 475.024 223.507C466.412 221.818 458.73 219.285 451.976 215.908C445.391 212.532 440.157 208.31 436.273 203.245C432.559 198.011 430.701 191.932 430.701 185.01C430.701 184.165 430.701 183.405 430.701 182.73C430.87 182.055 431.039 181.464 431.208 180.957H469.958C469.958 181.295 469.874 181.717 469.705 182.224C469.705 182.561 469.705 182.899 469.705 183.237C469.874 187.289 471.478 190.581 474.517 193.114C477.725 195.478 481.862 197.251 486.927 198.433C491.993 199.446 497.396 199.952 503.136 199.952C508.54 199.952 513.774 199.615 518.839 198.939C524.073 198.095 528.379 196.744 531.756 194.887C535.133 192.861 536.821 189.99 536.821 186.276C536.821 182.055 534.795 179.015 530.743 177.158C526.691 175.301 521.119 173.866 514.027 172.853C506.935 171.671 498.662 170.32 489.207 168.8C481.946 167.618 475.024 166.099 468.438 164.241C462.022 162.384 456.282 160.02 451.216 157.15C446.151 154.111 442.183 150.227 439.312 145.499C436.442 140.772 435.007 135.031 435.007 128.277C435.007 120.848 436.695 114.516 440.072 109.282C443.618 103.879 448.43 99.5732 454.509 96.3651C460.756 92.9882 468.101 90.5399 476.543 89.0203C485.154 87.3318 494.525 86.4876 504.656 86.4876C513.943 86.4876 522.554 87.3318 530.49 89.0203C538.425 90.5399 545.433 92.9037 551.511 96.1118C557.589 99.1511 562.402 103.035 565.947 107.762C569.493 112.49 571.266 117.977 571.266 124.225C571.266 124.9 571.182 125.66 571.013 126.504C571.013 127.18 571.013 127.771 571.013 128.277H532.262V126.757C532.262 123.549 530.912 120.932 528.21 118.906C525.677 116.711 522.301 115.107 518.079 114.094C513.858 113.081 509.215 112.574 504.15 112.574C501.786 112.574 498.831 112.743 495.285 113.081C491.908 113.25 488.531 113.756 485.154 114.601C481.777 115.445 478.907 116.627 476.543 118.146C474.348 119.497 473.251 121.523 473.251 124.225C473.251 127.602 475.108 130.134 478.823 131.823C482.537 133.511 487.434 134.862 493.512 135.875C499.591 136.719 506.176 137.732 513.267 138.914C521.034 140.096 528.632 141.447 536.062 142.967C543.491 144.486 550.076 146.681 555.817 149.552C561.726 152.422 566.454 156.39 570 161.455C573.545 166.521 575.318 173.19 575.318 181.464C575.318 189.737 573.545 196.744 570 202.485C566.623 208.226 561.726 212.869 555.31 216.415C548.894 219.792 541.211 222.24 532.262 223.76C523.482 225.279 513.605 226.039 502.63 226.039ZM597.21 223V89.5268H628.616L631.402 110.801H633.428C637.818 105.061 642.799 100.417 648.371 96.8716C654.112 93.3258 660.275 90.7087 666.86 89.0203C673.445 87.3318 680.03 86.4876 686.615 86.4876C698.265 86.4876 708.058 88.4293 715.994 92.3128C723.93 96.0274 729.924 101.768 733.976 109.535C738.028 117.133 740.055 127.011 740.055 139.168V223H701.811V145.246C701.811 140.181 701.135 135.875 699.785 132.329C698.434 128.784 696.492 125.913 693.959 123.718C691.427 121.523 688.303 119.919 684.588 118.906C681.043 117.893 676.99 117.386 672.431 117.386C665.846 117.386 659.768 118.822 654.196 121.692C648.624 124.394 644.15 128.277 640.773 133.342C637.396 138.239 635.707 143.98 635.707 150.565V223H597.21ZM768.247 69.2652V39.6326H806.744V69.2652H768.247ZM768.247 223V89.5268H806.744V223H768.247ZM889.85 226.039C880.057 226.039 872.036 224.688 865.789 221.987C859.542 219.285 854.899 214.98 851.859 209.07C848.82 202.992 847.3 195.056 847.3 185.263V117.893H824.253V89.5268H848.567L856.165 50.5232H885.797V89.5268H918.976V117.893H885.797V180.197C885.797 185.769 886.895 190.075 889.09 193.114C891.454 196.153 896.182 197.673 903.273 197.673H918.976V221.734C916.781 222.578 913.91 223.338 910.365 224.013C906.819 224.688 903.189 225.195 899.474 225.533C895.759 225.87 892.551 226.039 889.85 226.039ZM1013.85 226.039C997.302 226.039 983.119 223.507 971.3 218.441C959.481 213.207 950.447 205.44 944.2 195.14C937.953 184.841 934.829 171.839 934.829 156.137C934.829 140.434 937.953 127.433 944.2 117.133C950.447 106.834 959.481 99.1511 971.3 94.0857C983.119 89.0203 997.302 86.4876 1013.85 86.4876C1024.32 86.4876 1034.03 87.6695 1042.98 90.0333C1052.09 92.2283 1060.03 95.6897 1066.78 100.417C1073.54 104.976 1078.77 110.717 1082.49 117.64C1086.2 124.394 1088.06 132.329 1088.06 141.447H1049.31C1049.31 135.706 1047.7 130.894 1044.49 127.011C1041.46 122.958 1037.23 119.919 1031.83 117.893C1026.6 115.867 1020.52 114.854 1013.6 114.854C1005.15 114.854 997.978 116.373 992.068 119.413C986.327 122.452 981.937 126.842 978.898 132.583C975.859 138.323 974.339 145.331 974.339 153.604V158.923C974.339 167.027 975.859 174.034 978.898 179.944C982.106 185.685 986.665 190.075 992.574 193.114C998.653 196.153 1006.17 197.673 1015.12 197.673C1021.87 197.673 1027.86 196.576 1033.1 194.381C1038.5 192.186 1042.81 189.062 1046.01 185.01C1049.22 180.957 1050.83 176.23 1050.83 170.826H1088.06C1088.06 179.944 1086.12 188.049 1082.23 195.14C1078.52 202.063 1073.28 207.804 1066.53 212.363C1059.94 216.922 1052.09 220.383 1042.98 222.747C1034.03 224.942 1024.32 226.039 1013.85 226.039ZM1111.68 223V39.6326H1150.18V106.496H1151.95C1156.18 101.768 1160.9 97.9691 1166.14 95.0987C1171.54 92.0595 1177.2 89.8645 1183.11 88.5137C1189.02 87.1629 1195.01 86.4876 1201.09 86.4876C1212.74 86.4876 1222.53 88.4293 1230.47 92.3128C1238.4 96.0274 1244.4 101.768 1248.45 109.535C1252.5 117.133 1254.53 127.011 1254.53 139.168V223H1216.28V145.246C1216.28 140.181 1215.61 135.875 1214.26 132.329C1212.91 128.784 1210.97 125.913 1208.43 123.718C1205.9 121.523 1202.78 119.919 1199.06 118.906C1195.52 117.893 1191.46 117.386 1186.91 117.386C1180.32 117.386 1174.24 118.822 1168.67 121.692C1163.1 124.394 1158.62 128.277 1155.25 133.342C1151.87 138.239 1150.18 143.98 1150.18 150.565V223H1111.68Z" fill="#28203F"/>
    <g clip-path="url(#clip0_64_7443)">
        <path d="M308.812 239.066L282.718 212.971L256.623 239.066L282.718 265.16L308.812 239.066Z" fill="#C1AAFD"/>
        <path d="M120.163 36.7097C120.163 22.2976 108.48 10.6154 94.0683 10.6154C79.6562 10.6154 67.9739 22.2976 67.9739 36.7097C67.9739 51.1218 79.6562 62.804 94.0683 62.804C108.48 62.804 120.163 51.1179 120.163 36.7097Z" fill="#FFD260"/>
        <path fill-rule="evenodd" clip-rule="evenodd" d="M302.386 71.518C304.142 76.6649 305.483 81.9957 306.539 87.4281C307.974 94.8121 308.811 102.411 308.811 110.21C308.811 176.361 255.187 229.985 189.036 229.985C188.288 229.985 187.551 229.943 186.813 229.902C186.329 229.875 185.844 229.848 185.356 229.832H144.067L108.743 265.157H63.7038L99.0281 229.832H80.3647L45.0404 265.157H0.00109863L89.0394 176.122L132.596 132.561L212.346 52.8155H140.857C154.213 31.6843 176.087 16.4939 201.657 12.051L201.724 12.0395C202.566 11.8947 203.404 11.7505 204.254 11.6286C205.021 11.5191 205.795 11.4252 206.569 11.3353C207.696 11.2023 208.83 11.0928 209.968 11.0028C210.172 10.9873 210.376 10.9705 210.581 10.9538C210.995 10.9197 211.409 10.8856 211.826 10.862C213.613 10.7564 215.42 10.686 217.235 10.686C219.816 10.686 222.362 10.819 224.885 11.0302C225.004 11.0397 225.124 11.0479 225.244 11.0562C225.421 11.0683 225.598 11.0804 225.773 11.0967C228.178 11.3235 230.556 11.656 232.902 12.0666C233.021 12.0876 233.139 12.1081 233.257 12.1287C233.514 12.1733 233.77 12.2179 234.025 12.2661C236.301 12.6924 238.542 13.2047 240.756 13.7953C241.217 13.9205 241.679 14.0534 242.136 14.1864C244.154 14.7613 246.141 15.3949 248.101 16.0989C248.733 16.3273 249.355 16.5758 249.977 16.8242C250.132 16.8863 250.288 16.9484 250.443 17.0102C251.667 17.4912 252.872 18.0114 254.073 18.5394C272.791 26.9129 288.126 41.4579 297.501 59.6012C299.331 63.4653 300.989 67.4271 302.386 71.518ZM222.94 31.9339C222.94 35.0811 220.389 37.6323 217.242 37.6323C214.095 37.6323 211.543 35.0811 211.543 31.9339C211.543 28.7868 214.095 26.2356 217.242 26.2356C220.389 26.2356 222.94 28.7868 222.94 31.9339Z" fill="#28203F"/>
    </g>
    <defs>
        <clipPath id="clip0_64_7443">
            <rect width="308.81" height="254.541" fill="white" transform="translate(0.00012207 10.6154)"/>
        </clipPath>
    </defs>
</svg>
